<mxfile host="drawio-plugin" modified="2021-12-07T02:45:42.585Z" agent="5.0 (Windows NT 6.2; Win64; x64) AppleWebKit/537.36 (KHTML, like Gecko) Chrome/89.0.4389.114 Safari/537.36" etag="n04KLDpx-RFHbp8w926c" version="14.7.4" type="embed" pages="2"><diagram id="23iRSUPoRavnBvh4doch" name="Page-1"><mxGraphModel dx="1764" dy="505" grid="1" gridSize="10" guides="1" tooltips="1" connect="1" arrows="1" fold="1" page="1" pageScale="1" pageWidth="827" pageHeight="1169" math="0" shadow="0"><root><mxCell id="0"/><mxCell id="1" parent="0"/><mxCell id="6" value="Command" style="swimlane;fontStyle=1;align=center;verticalAlign=top;childLayout=stackLayout;horizontal=1;startSize=26;horizontalStack=0;resizeParent=1;resizeParentMax=0;resizeLast=0;collapsible=1;marginBottom=0;" parent="1" vertex="1"><mxGeometry x="700" y="322" width="160" height="60" as="geometry"/></mxCell><mxCell id="8" value="" style="line;strokeWidth=1;fillColor=none;align=left;verticalAlign=middle;spacingTop=-1;spacingLeft=3;spacingRight=3;rotatable=0;labelPosition=right;points=[];portConstraint=eastwest;" parent="6" vertex="1"><mxGeometry y="26" width="160" height="8" as="geometry"/></mxCell><mxCell id="9" value="+ execute" style="text;strokeColor=none;fillColor=none;align=left;verticalAlign=top;spacingLeft=4;spacingRight=4;overflow=hidden;rotatable=0;points=[[0,0.5],[1,0.5]];portConstraint=eastwest;" parent="6" vertex="1"><mxGeometry y="34" width="160" height="26" as="geometry"/></mxCell><mxCell id="27" value="CountCommand" style="swimlane;fontStyle=1;align=center;verticalAlign=top;childLayout=stackLayout;horizontal=1;startSize=26;horizontalStack=0;resizeParent=1;resizeParentMax=0;resizeLast=0;collapsible=1;marginBottom=0;" parent="1" vertex="1"><mxGeometry x="520" y="122" width="160" height="60" as="geometry"/></mxCell><mxCell id="28" value="" style="line;strokeWidth=1;fillColor=none;align=left;verticalAlign=middle;spacingTop=-1;spacingLeft=3;spacingRight=3;rotatable=0;labelPosition=right;points=[];portConstraint=eastwest;" parent="27" vertex="1"><mxGeometry y="26" width="160" height="8" as="geometry"/></mxCell><mxCell id="29" value="+ execute" style="text;strokeColor=none;fillColor=none;align=left;verticalAlign=top;spacingLeft=4;spacingRight=4;overflow=hidden;rotatable=0;points=[[0,0.5],[1,0.5]];portConstraint=eastwest;" parent="27" vertex="1"><mxGeometry y="34" width="160" height="26" as="geometry"/></mxCell><mxCell id="39" value="EnploeeStore" style="swimlane;fontStyle=1;align=center;verticalAlign=top;childLayout=stackLayout;horizontal=1;startSize=26;horizontalStack=0;resizeParent=1;resizeParentMax=0;resizeLast=0;collapsible=1;marginBottom=0;" parent="1" vertex="1"><mxGeometry x="440" y="560" width="160" height="138" as="geometry"/></mxCell><mxCell id="40" value="" style="line;strokeWidth=1;fillColor=none;align=left;verticalAlign=middle;spacingTop=-1;spacingLeft=3;spacingRight=3;rotatable=0;labelPosition=right;points=[];portConstraint=eastwest;" parent="39" vertex="1"><mxGeometry y="26" width="160" height="8" as="geometry"/></mxCell><mxCell id="41" value="+ search" style="text;strokeColor=none;fillColor=none;align=left;verticalAlign=top;spacingLeft=4;spacingRight=4;overflow=hidden;rotatable=0;points=[[0,0.5],[1,0.5]];portConstraint=eastwest;" parent="39" vertex="1"><mxGeometry y="34" width="160" height="26" as="geometry"/></mxCell><mxCell id="42" value="+ delete" style="text;strokeColor=none;fillColor=none;align=left;verticalAlign=top;spacingLeft=4;spacingRight=4;overflow=hidden;rotatable=0;points=[[0,0.5],[1,0.5]];portConstraint=eastwest;" parent="39" vertex="1"><mxGeometry y="60" width="160" height="26" as="geometry"/></mxCell><mxCell id="44" value="+ add" style="text;strokeColor=none;fillColor=none;align=left;verticalAlign=top;spacingLeft=4;spacingRight=4;overflow=hidden;rotatable=0;points=[[0,0.5],[1,0.5]];portConstraint=eastwest;" parent="39" vertex="1"><mxGeometry y="86" width="160" height="26" as="geometry"/></mxCell><mxCell id="43" value="+ count" style="text;strokeColor=none;fillColor=none;align=left;verticalAlign=top;spacingLeft=4;spacingRight=4;overflow=hidden;rotatable=0;points=[[0,0.5],[1,0.5]];portConstraint=eastwest;" parent="39" vertex="1"><mxGeometry y="112" width="160" height="26" as="geometry"/></mxCell><mxCell id="59" value="EmployStoreImpl" style="swimlane;fontStyle=1;align=center;verticalAlign=top;childLayout=stackLayout;horizontal=1;startSize=26;horizontalStack=0;resizeParent=1;resizeParentMax=0;resizeLast=0;collapsible=1;marginBottom=0;" parent="1" vertex="1"><mxGeometry x="430" y="724" width="180" height="164" as="geometry"/></mxCell><mxCell id="60" value="+ employees: List&lt;Employee&gt;" style="text;strokeColor=none;fillColor=none;align=left;verticalAlign=top;spacingLeft=4;spacingRight=4;overflow=hidden;rotatable=0;points=[[0,0.5],[1,0.5]];portConstraint=eastwest;" parent="59" vertex="1"><mxGeometry y="26" width="180" height="26" as="geometry"/></mxCell><mxCell id="61" value="" style="line;strokeWidth=1;fillColor=none;align=left;verticalAlign=middle;spacingTop=-1;spacingLeft=3;spacingRight=3;rotatable=0;labelPosition=right;points=[];portConstraint=eastwest;" parent="59" vertex="1"><mxGeometry y="52" width="180" height="8" as="geometry"/></mxCell><mxCell id="62" value="+ search" style="text;strokeColor=none;fillColor=none;align=left;verticalAlign=top;spacingLeft=4;spacingRight=4;overflow=hidden;rotatable=0;points=[[0,0.5],[1,0.5]];portConstraint=eastwest;" parent="59" vertex="1"><mxGeometry y="60" width="180" height="26" as="geometry"/></mxCell><mxCell id="63" value="+ delete" style="text;strokeColor=none;fillColor=none;align=left;verticalAlign=top;spacingLeft=4;spacingRight=4;overflow=hidden;rotatable=0;points=[[0,0.5],[1,0.5]];portConstraint=eastwest;" parent="59" vertex="1"><mxGeometry y="86" width="180" height="26" as="geometry"/></mxCell><mxCell id="64" value="+ add" style="text;strokeColor=none;fillColor=none;align=left;verticalAlign=top;spacingLeft=4;spacingRight=4;overflow=hidden;rotatable=0;points=[[0,0.5],[1,0.5]];portConstraint=eastwest;" parent="59" vertex="1"><mxGeometry y="112" width="180" height="26" as="geometry"/></mxCell><mxCell id="65" value="+ count" style="text;strokeColor=none;fillColor=none;align=left;verticalAlign=top;spacingLeft=4;spacingRight=4;overflow=hidden;rotatable=0;points=[[0,0.5],[1,0.5]];portConstraint=eastwest;" parent="59" vertex="1"><mxGeometry y="138" width="180" height="26" as="geometry"/></mxCell><mxCell id="66" value="Employee" style="swimlane;fontStyle=1;align=center;verticalAlign=top;childLayout=stackLayout;horizontal=1;startSize=26;horizontalStack=0;resizeParent=1;resizeParentMax=0;resizeLast=0;collapsible=1;marginBottom=0;" parent="1" vertex="1"><mxGeometry x="680" y="672" width="160" height="216" as="geometry"/></mxCell><mxCell id="67" value="+ number" style="text;strokeColor=none;fillColor=none;align=left;verticalAlign=top;spacingLeft=4;spacingRight=4;overflow=hidden;rotatable=0;points=[[0,0.5],[1,0.5]];portConstraint=eastwest;" parent="66" vertex="1"><mxGeometry y="26" width="160" height="26" as="geometry"/></mxCell><mxCell id="70" value="+ name" style="text;strokeColor=none;fillColor=none;align=left;verticalAlign=top;spacingLeft=4;spacingRight=4;overflow=hidden;rotatable=0;points=[[0,0.5],[1,0.5]];portConstraint=eastwest;" parent="66" vertex="1"><mxGeometry y="52" width="160" height="26" as="geometry"/></mxCell><mxCell id="71" value="+ carrerlevel" style="text;strokeColor=none;fillColor=none;align=left;verticalAlign=top;spacingLeft=4;spacingRight=4;overflow=hidden;rotatable=0;points=[[0,0.5],[1,0.5]];portConstraint=eastwest;" parent="66" vertex="1"><mxGeometry y="78" width="160" height="26" as="geometry"/></mxCell><mxCell id="72" value="+ phoneNumber" style="text;strokeColor=none;fillColor=none;align=left;verticalAlign=top;spacingLeft=4;spacingRight=4;overflow=hidden;rotatable=0;points=[[0,0.5],[1,0.5]];portConstraint=eastwest;" parent="66" vertex="1"><mxGeometry y="104" width="160" height="26" as="geometry"/></mxCell><mxCell id="73" value="+ birthday" style="text;strokeColor=none;fillColor=none;align=left;verticalAlign=top;spacingLeft=4;spacingRight=4;overflow=hidden;rotatable=0;points=[[0,0.5],[1,0.5]];portConstraint=eastwest;" parent="66" vertex="1"><mxGeometry y="130" width="160" height="26" as="geometry"/></mxCell><mxCell id="68" value="" style="line;strokeWidth=1;fillColor=none;align=left;verticalAlign=middle;spacingTop=-1;spacingLeft=3;spacingRight=3;rotatable=0;labelPosition=right;points=[];portConstraint=eastwest;" parent="66" vertex="1"><mxGeometry y="156" width="160" height="8" as="geometry"/></mxCell><mxCell id="69" value="+ get/set" style="text;strokeColor=none;fillColor=none;align=left;verticalAlign=top;spacingLeft=4;spacingRight=4;overflow=hidden;rotatable=0;points=[[0,0.5],[1,0.5]];portConstraint=eastwest;" parent="66" vertex="1"><mxGeometry y="164" width="160" height="26" as="geometry"/></mxCell><mxCell id="74" value="+ equals (사번으로)" style="text;strokeColor=none;fillColor=none;align=left;verticalAlign=top;spacingLeft=4;spacingRight=4;overflow=hidden;rotatable=0;points=[[0,0.5],[1,0.5]];portConstraint=eastwest;" parent="66" vertex="1"><mxGeometry y="190" width="160" height="26" as="geometry"/></mxCell><mxCell id="82" value="AddCommand" style="swimlane;fontStyle=1;align=center;verticalAlign=top;childLayout=stackLayout;horizontal=1;startSize=26;horizontalStack=0;resizeParent=1;resizeParentMax=0;resizeLast=0;collapsible=1;marginBottom=0;" parent="1" vertex="1"><mxGeometry x="520" y="192" width="160" height="112" as="geometry"><mxRectangle x="520" y="192" width="110" height="26" as="alternateBounds"/></mxGeometry></mxCell><mxCell id="83" value="+ employee" style="text;strokeColor=none;fillColor=none;align=left;verticalAlign=top;spacingLeft=4;spacingRight=4;overflow=hidden;rotatable=0;points=[[0,0.5],[1,0.5]];portConstraint=eastwest;" parent="82" vertex="1"><mxGeometry y="26" width="160" height="26" as="geometry"/></mxCell><mxCell id="105" value="+ optionParser : OptionParser" style="text;strokeColor=none;fillColor=none;align=left;verticalAlign=top;spacingLeft=4;spacingRight=4;overflow=hidden;rotatable=0;points=[[0,0.5],[1,0.5]];portConstraint=eastwest;" parent="82" vertex="1"><mxGeometry y="52" width="160" height="26" as="geometry"/></mxCell><mxCell id="88" value="" style="line;strokeWidth=1;fillColor=none;align=left;verticalAlign=middle;spacingTop=-1;spacingLeft=3;spacingRight=3;rotatable=0;labelPosition=right;points=[];portConstraint=eastwest;" parent="82" vertex="1"><mxGeometry y="78" width="160" height="8" as="geometry"/></mxCell><mxCell id="89" value="+ execute" style="text;strokeColor=none;fillColor=none;align=left;verticalAlign=top;spacingLeft=4;spacingRight=4;overflow=hidden;rotatable=0;points=[[0,0.5],[1,0.5]];portConstraint=eastwest;" parent="82" vertex="1"><mxGeometry y="86" width="160" height="26" as="geometry"/></mxCell><mxCell id="92" value="" style="endArrow=block;dashed=1;endFill=0;endSize=12;html=1;exitX=0.5;exitY=0;exitDx=0;exitDy=0;" parent="1" source="59" edge="1"><mxGeometry width="160" relative="1" as="geometry"><mxPoint x="620" y="874" as="sourcePoint"/><mxPoint x="520" y="694" as="targetPoint"/></mxGeometry></mxCell><mxCell id="93" value="" style="endArrow=diamondThin;endFill=1;endSize=24;html=1;exitX=-0.019;exitY=-0.038;exitDx=0;exitDy=0;exitPerimeter=0;" parent="1" source="73" target="59" edge="1"><mxGeometry width="160" relative="1" as="geometry"><mxPoint x="450" y="734" as="sourcePoint"/><mxPoint x="620" y="974" as="targetPoint"/></mxGeometry></mxCell><mxCell id="106" value="Use" style="endArrow=open;endSize=12;dashed=1;html=1;entryX=1;entryY=0;entryDx=0;entryDy=0;" parent="1" source="6" target="39" edge="1"><mxGeometry width="160" relative="1" as="geometry"><mxPoint x="440" y="592" as="sourcePoint"/><mxPoint x="610" y="412" as="targetPoint"/><Array as="points"/></mxGeometry></mxCell><mxCell id="107" value="DeleteCommand" style="swimlane;fontStyle=1;align=center;verticalAlign=top;childLayout=stackLayout;horizontal=1;startSize=26;horizontalStack=0;resizeParent=1;resizeParentMax=0;resizeLast=0;collapsible=1;marginBottom=0;" parent="1" vertex="1"><mxGeometry x="690" y="70" width="200" height="112" as="geometry"/></mxCell><mxCell id="108" value="+ conditionPair: Pair&lt;String, String&gt;" style="text;strokeColor=none;fillColor=none;align=left;verticalAlign=top;spacingLeft=4;spacingRight=4;overflow=hidden;rotatable=0;points=[[0,0.5],[1,0.5]];portConstraint=eastwest;" parent="107" vertex="1"><mxGeometry y="26" width="200" height="26" as="geometry"/></mxCell><mxCell id="109" value="+ optionParser : OptionParser" style="text;strokeColor=none;fillColor=none;align=left;verticalAlign=top;spacingLeft=4;spacingRight=4;overflow=hidden;rotatable=0;points=[[0,0.5],[1,0.5]];portConstraint=eastwest;" parent="107" vertex="1"><mxGeometry y="52" width="200" height="26" as="geometry"/></mxCell><mxCell id="110" value="" style="line;strokeWidth=1;fillColor=none;align=left;verticalAlign=middle;spacingTop=-1;spacingLeft=3;spacingRight=3;rotatable=0;labelPosition=right;points=[];portConstraint=eastwest;" parent="107" vertex="1"><mxGeometry y="78" width="200" height="8" as="geometry"/></mxCell><mxCell id="111" value="+ execute" style="text;strokeColor=none;fillColor=none;align=left;verticalAlign=top;spacingLeft=4;spacingRight=4;overflow=hidden;rotatable=0;points=[[0,0.5],[1,0.5]];portConstraint=eastwest;" parent="107" vertex="1"><mxGeometry y="86" width="200" height="26" as="geometry"/></mxCell><mxCell id="112" value="SearchCommand" style="swimlane;fontStyle=1;align=center;verticalAlign=top;childLayout=stackLayout;horizontal=1;startSize=26;horizontalStack=0;resizeParent=1;resizeParentMax=0;resizeLast=0;collapsible=1;marginBottom=0;" parent="1" vertex="1"><mxGeometry x="690" y="192" width="200" height="112" as="geometry"/></mxCell><mxCell id="113" value="+ conditionPair: Pair&lt;String, String&gt;" style="text;strokeColor=none;fillColor=none;align=left;verticalAlign=top;spacingLeft=4;spacingRight=4;overflow=hidden;rotatable=0;points=[[0,0.5],[1,0.5]];portConstraint=eastwest;" parent="112" vertex="1"><mxGeometry y="26" width="200" height="26" as="geometry"/></mxCell><mxCell id="114" value="+ optionParser : OptionParser" style="text;strokeColor=none;fillColor=none;align=left;verticalAlign=top;spacingLeft=4;spacingRight=4;overflow=hidden;rotatable=0;points=[[0,0.5],[1,0.5]];portConstraint=eastwest;" parent="112" vertex="1"><mxGeometry y="52" width="200" height="26" as="geometry"/></mxCell><mxCell id="115" value="" style="line;strokeWidth=1;fillColor=none;align=left;verticalAlign=middle;spacingTop=-1;spacingLeft=3;spacingRight=3;rotatable=0;labelPosition=right;points=[];portConstraint=eastwest;" parent="112" vertex="1"><mxGeometry y="78" width="200" height="8" as="geometry"/></mxCell><mxCell id="116" value="+ execute" style="text;strokeColor=none;fillColor=none;align=left;verticalAlign=top;spacingLeft=4;spacingRight=4;overflow=hidden;rotatable=0;points=[[0,0.5],[1,0.5]];portConstraint=eastwest;" parent="112" vertex="1"><mxGeometry y="86" width="200" height="26" as="geometry"/></mxCell><mxCell id="117" value="OptionParser" style="swimlane;fontStyle=1;align=center;verticalAlign=top;childLayout=stackLayout;horizontal=1;startSize=26;horizontalStack=0;resizeParent=1;resizeParentMax=0;resizeLast=0;collapsible=1;marginBottom=0;" parent="1" vertex="1"><mxGeometry x="-30" y="218" width="180" height="86" as="geometry"/></mxCell><mxCell id="118" value="+ isPrintOn" style="text;strokeColor=none;fillColor=none;align=left;verticalAlign=top;spacingLeft=4;spacingRight=4;overflow=hidden;rotatable=0;points=[[0,0.5],[1,0.5]];portConstraint=eastwest;" parent="117" vertex="1"><mxGeometry y="26" width="180" height="26" as="geometry"/></mxCell><mxCell id="119" value="" style="line;strokeWidth=1;fillColor=none;align=left;verticalAlign=middle;spacingTop=-1;spacingLeft=3;spacingRight=3;rotatable=0;labelPosition=right;points=[];portConstraint=eastwest;" parent="117" vertex="1"><mxGeometry y="52" width="180" height="8" as="geometry"/></mxCell><mxCell id="120" value="+ isPinrtOn" style="text;strokeColor=none;fillColor=none;align=left;verticalAlign=top;spacingLeft=4;spacingRight=4;overflow=hidden;rotatable=0;points=[[0,0.5],[1,0.5]];portConstraint=eastwest;" parent="117" vertex="1"><mxGeometry y="60" width="180" height="26" as="geometry"/></mxCell><mxCell id="124" value="ResultStringFormatter" style="swimlane;fontStyle=1;align=center;verticalAlign=top;childLayout=stackLayout;horizontal=1;startSize=26;horizontalStack=0;resizeParent=1;resizeParentMax=0;resizeLast=0;collapsible=1;marginBottom=0;" parent="1" vertex="1"><mxGeometry x="970" y="236" width="280" height="86" as="geometry"/></mxCell><mxCell id="125" value="+ xxx" style="text;strokeColor=none;fillColor=none;align=left;verticalAlign=top;spacingLeft=4;spacingRight=4;overflow=hidden;rotatable=0;points=[[0,0.5],[1,0.5]];portConstraint=eastwest;" parent="124" vertex="1"><mxGeometry y="26" width="280" height="26" as="geometry"/></mxCell><mxCell id="126" value="" style="line;strokeWidth=1;fillColor=none;align=left;verticalAlign=middle;spacingTop=-1;spacingLeft=3;spacingRight=3;rotatable=0;labelPosition=right;points=[];portConstraint=eastwest;" parent="124" vertex="1"><mxGeometry y="52" width="280" height="8" as="geometry"/></mxCell><mxCell id="127" value="+ getEmployeeListToFormattedString" style="text;strokeColor=none;fillColor=none;align=left;verticalAlign=top;spacingLeft=4;spacingRight=4;overflow=hidden;rotatable=0;points=[[0,0.5],[1,0.5]];portConstraint=eastwest;" parent="124" vertex="1"><mxGeometry y="60" width="280" height="26" as="geometry"/></mxCell><mxCell id="128" value="Use" style="endArrow=open;endSize=12;dashed=1;html=1;entryX=0;entryY=0.5;entryDx=0;entryDy=0;exitX=1;exitY=0.5;exitDx=0;exitDy=0;" parent="1" source="116" target="127" edge="1"><mxGeometry width="160" relative="1" as="geometry"><mxPoint x="710" y="389.78947368421063" as="sourcePoint"/><mxPoint x="600" y="428" as="targetPoint"/><Array as="points"/></mxGeometry></mxCell><mxCell id="129" value="Use" style="endArrow=open;endSize=12;dashed=1;html=1;entryX=0;entryY=1;entryDx=0;entryDy=0;exitX=1;exitY=0.5;exitDx=0;exitDy=0;entryPerimeter=0;" parent="1" source="111" target="126" edge="1"><mxGeometry width="160" relative="1" as="geometry"><mxPoint x="900" y="301" as="sourcePoint"/><mxPoint x="980" y="319" as="targetPoint"/><Array as="points"/></mxGeometry></mxCell><mxCell id="130" value="CommandReader" style="swimlane;fontStyle=1;align=center;verticalAlign=top;childLayout=stackLayout;horizontal=1;startSize=26;horizontalStack=0;resizeParent=1;resizeParentMax=0;resizeLast=0;collapsible=1;marginBottom=0;" parent="1" vertex="1"><mxGeometry x="200" y="240" width="180" height="86" as="geometry"/></mxCell><mxCell id="131" value="+ inputFileName" style="text;strokeColor=none;fillColor=none;align=left;verticalAlign=top;spacingLeft=4;spacingRight=4;overflow=hidden;rotatable=0;points=[[0,0.5],[1,0.5]];portConstraint=eastwest;" parent="130" vertex="1"><mxGeometry y="26" width="180" height="26" as="geometry"/></mxCell><mxCell id="132" value="" style="line;strokeWidth=1;fillColor=none;align=left;verticalAlign=middle;spacingTop=-1;spacingLeft=3;spacingRight=3;rotatable=0;labelPosition=right;points=[];portConstraint=eastwest;" parent="130" vertex="1"><mxGeometry y="52" width="180" height="8" as="geometry"/></mxCell><mxCell id="133" value="+ readFile" style="text;strokeColor=none;fillColor=none;align=left;verticalAlign=top;spacingLeft=4;spacingRight=4;overflow=hidden;rotatable=0;points=[[0,0.5],[1,0.5]];portConstraint=eastwest;" parent="130" vertex="1"><mxGeometry y="60" width="180" height="26" as="geometry"/></mxCell><mxCell id="134" value="text file 에서 List&amp;lt;String&amp;gt; 으로&lt;br&gt;추출" style="text;html=1;strokeColor=none;fillColor=none;align=center;verticalAlign=middle;whiteSpace=wrap;rounded=0;" parent="1" vertex="1"><mxGeometry x="270" y="198" width="110" height="42" as="geometry"/></mxCell><mxCell id="135" value="CommandParser" style="swimlane;fontStyle=1;align=center;verticalAlign=top;childLayout=stackLayout;horizontal=1;startSize=26;horizontalStack=0;resizeParent=1;resizeParentMax=0;resizeLast=0;collapsible=1;marginBottom=0;" parent="1" vertex="1"><mxGeometry x="200" y="340" width="180" height="86" as="geometry"/></mxCell><mxCell id="136" value="+ xxx" style="text;strokeColor=none;fillColor=none;align=left;verticalAlign=top;spacingLeft=4;spacingRight=4;overflow=hidden;rotatable=0;points=[[0,0.5],[1,0.5]];portConstraint=eastwest;" parent="135" vertex="1"><mxGeometry y="26" width="180" height="26" as="geometry"/></mxCell><mxCell id="137" value="" style="line;strokeWidth=1;fillColor=none;align=left;verticalAlign=middle;spacingTop=-1;spacingLeft=3;spacingRight=3;rotatable=0;labelPosition=right;points=[];portConstraint=eastwest;" parent="135" vertex="1"><mxGeometry y="52" width="180" height="8" as="geometry"/></mxCell><mxCell id="138" value="+ parse : TokenGroup" style="text;strokeColor=none;fillColor=none;align=left;verticalAlign=top;spacingLeft=4;spacingRight=4;overflow=hidden;rotatable=0;points=[[0,0.5],[1,0.5]];portConstraint=eastwest;" parent="135" vertex="1"><mxGeometry y="60" width="180" height="26" as="geometry"/></mxCell><mxCell id="144" value="CommandFactory" style="swimlane;fontStyle=1;align=center;verticalAlign=top;childLayout=stackLayout;horizontal=1;startSize=26;horizontalStack=0;resizeParent=1;resizeParentMax=0;resizeLast=0;collapsible=1;marginBottom=0;" parent="1" vertex="1"><mxGeometry x="414" y="322" width="180" height="86" as="geometry"/></mxCell><mxCell id="145" value="+ xxx" style="text;strokeColor=none;fillColor=none;align=left;verticalAlign=top;spacingLeft=4;spacingRight=4;overflow=hidden;rotatable=0;points=[[0,0.5],[1,0.5]];portConstraint=eastwest;" parent="144" vertex="1"><mxGeometry y="26" width="180" height="26" as="geometry"/></mxCell><mxCell id="146" value="" style="line;strokeWidth=1;fillColor=none;align=left;verticalAlign=middle;spacingTop=-1;spacingLeft=3;spacingRight=3;rotatable=0;labelPosition=right;points=[];portConstraint=eastwest;" parent="144" vertex="1"><mxGeometry y="52" width="180" height="8" as="geometry"/></mxCell><mxCell id="147" value="+ buildCommand : Command" style="text;strokeColor=none;fillColor=none;align=left;verticalAlign=top;spacingLeft=4;spacingRight=4;overflow=hidden;rotatable=0;points=[[0,0.5],[1,0.5]];portConstraint=eastwest;" parent="144" vertex="1"><mxGeometry y="60" width="180" height="26" as="geometry"/></mxCell><mxCell id="148" value="Use" style="endArrow=open;endSize=12;dashed=1;html=1;entryX=1;entryY=0.5;entryDx=0;entryDy=0;exitX=1;exitY=0.5;exitDx=0;exitDy=0;" parent="1" source="147" target="105" edge="1"><mxGeometry width="160" relative="1" as="geometry"><mxPoint x="430" y="570" as="sourcePoint"/><mxPoint x="590" y="570" as="targetPoint"/></mxGeometry></mxCell><mxCell id="149" value="Printer" style="swimlane;fontStyle=1;align=center;verticalAlign=top;childLayout=stackLayout;horizontal=1;startSize=26;horizontalStack=0;resizeParent=1;resizeParentMax=0;resizeLast=0;collapsible=1;marginBottom=0;" parent="1" vertex="1"><mxGeometry x="170" y="452" width="180" height="86" as="geometry"/></mxCell><mxCell id="150" value="+ xxx" style="text;strokeColor=none;fillColor=none;align=left;verticalAlign=top;spacingLeft=4;spacingRight=4;overflow=hidden;rotatable=0;points=[[0,0.5],[1,0.5]];portConstraint=eastwest;" parent="149" vertex="1"><mxGeometry y="26" width="180" height="26" as="geometry"/></mxCell><mxCell id="151" value="" style="line;strokeWidth=1;fillColor=none;align=left;verticalAlign=middle;spacingTop=-1;spacingLeft=3;spacingRight=3;rotatable=0;labelPosition=right;points=[];portConstraint=eastwest;" parent="149" vertex="1"><mxGeometry y="52" width="180" height="8" as="geometry"/></mxCell><mxCell id="152" value="+print" style="text;strokeColor=none;fillColor=none;align=left;verticalAlign=top;spacingLeft=4;spacingRight=4;overflow=hidden;rotatable=0;points=[[0,0.5],[1,0.5]];portConstraint=eastwest;" parent="149" vertex="1"><mxGeometry y="60" width="180" height="26" as="geometry"/></mxCell><mxCell id="153" value="TokenGroup" style="swimlane;fontStyle=1;align=center;verticalAlign=top;childLayout=stackLayout;horizontal=1;startSize=26;horizontalStack=0;resizeParent=1;resizeParentMax=0;resizeLast=0;collapsible=1;marginBottom=0;" parent="1" vertex="1"><mxGeometry x="-30" y="400" width="180" height="138" as="geometry"/></mxCell><mxCell id="154" value="+ type" style="text;strokeColor=none;fillColor=none;align=left;verticalAlign=top;spacingLeft=4;spacingRight=4;overflow=hidden;rotatable=0;points=[[0,0.5],[1,0.5]];portConstraint=eastwest;" parent="153" vertex="1"><mxGeometry y="26" width="180" height="26" as="geometry"/></mxCell><mxCell id="157" value="+ options: List&lt;String&gt;" style="text;strokeColor=none;fillColor=none;align=left;verticalAlign=top;spacingLeft=4;spacingRight=4;overflow=hidden;rotatable=0;points=[[0,0.5],[1,0.5]];portConstraint=eastwest;" parent="153" vertex="1"><mxGeometry y="52" width="180" height="26" as="geometry"/></mxCell><mxCell id="158" value="+ params: List&lt;String&gt;" style="text;strokeColor=none;fillColor=none;align=left;verticalAlign=top;spacingLeft=4;spacingRight=4;overflow=hidden;rotatable=0;points=[[0,0.5],[1,0.5]];portConstraint=eastwest;" parent="153" vertex="1"><mxGeometry y="78" width="180" height="26" as="geometry"/></mxCell><mxCell id="155" value="" style="line;strokeWidth=1;fillColor=none;align=left;verticalAlign=middle;spacingTop=-1;spacingLeft=3;spacingRight=3;rotatable=0;labelPosition=right;points=[];portConstraint=eastwest;" parent="153" vertex="1"><mxGeometry y="104" width="180" height="8" as="geometry"/></mxCell><mxCell id="156" value="+ parse : TokenGroup" style="text;strokeColor=none;fillColor=none;align=left;verticalAlign=top;spacingLeft=4;spacingRight=4;overflow=hidden;rotatable=0;points=[[0,0.5],[1,0.5]];portConstraint=eastwest;" parent="153" vertex="1"><mxGeometry y="112" width="180" height="26" as="geometry"/></mxCell><mxCell id="159" value="Use" style="endArrow=open;endSize=12;dashed=1;html=1;exitX=0;exitY=0.5;exitDx=0;exitDy=0;entryX=1;entryY=0;entryDx=0;entryDy=0;" parent="1" source="138" target="153" edge="1"><mxGeometry width="160" relative="1" as="geometry"><mxPoint x="290" y="570" as="sourcePoint"/><mxPoint x="450" y="570" as="targetPoint"/></mxGeometry></mxCell><mxCell id="160" value="CommandExecutor" style="swimlane;fontStyle=1;align=center;verticalAlign=top;childLayout=stackLayout;horizontal=1;startSize=26;horizontalStack=0;resizeParent=1;resizeParentMax=0;resizeLast=0;collapsible=1;marginBottom=0;" parent="1" vertex="1"><mxGeometry x="370" y="440" width="180" height="86" as="geometry"/></mxCell><mxCell id="161" value="+ xxx" style="text;strokeColor=none;fillColor=none;align=left;verticalAlign=top;spacingLeft=4;spacingRight=4;overflow=hidden;rotatable=0;points=[[0,0.5],[1,0.5]];portConstraint=eastwest;" parent="160" vertex="1"><mxGeometry y="26" width="180" height="26" as="geometry"/></mxCell><mxCell id="162" value="" style="line;strokeWidth=1;fillColor=none;align=left;verticalAlign=middle;spacingTop=-1;spacingLeft=3;spacingRight=3;rotatable=0;labelPosition=right;points=[];portConstraint=eastwest;" parent="160" vertex="1"><mxGeometry y="52" width="180" height="8" as="geometry"/></mxCell><mxCell id="163" value="+ execute" style="text;strokeColor=none;fillColor=none;align=left;verticalAlign=top;spacingLeft=4;spacingRight=4;overflow=hidden;rotatable=0;points=[[0,0.5],[1,0.5]];portConstraint=eastwest;" parent="160" vertex="1"><mxGeometry y="60" width="180" height="26" as="geometry"/></mxCell><mxCell id="164" value="Use" style="endArrow=open;endSize=12;dashed=1;html=1;entryX=0;entryY=0.5;entryDx=0;entryDy=0;exitX=1;exitY=0.5;exitDx=0;exitDy=0;" parent="1" source="163" target="9" edge="1"><mxGeometry width="160" relative="1" as="geometry"><mxPoint x="610" y="409" as="sourcePoint"/><mxPoint x="706.96" y="341" as="targetPoint"/></mxGeometry></mxCell><mxCell id="165" value="&lt;div&gt;modify 기능&lt;/div&gt;&lt;div&gt;mod,옵션1,옵션2,옵션3,컬럼명,조건값,변경할컬럼명,변경할값&lt;/div&gt;&lt;div&gt;MOD,-p,,,name,KYUMOKKIM,name,KYUMOKLEE&lt;/div&gt;&lt;div&gt;&lt;br&gt;&lt;/div&gt;&lt;div&gt;certi 컬럼 추가&lt;/div&gt;&lt;div&gt;ADV,PRO,EX&lt;/div&gt;&lt;div&gt;&lt;br&gt;&lt;/div&gt;&lt;div&gt;이름 성 조건 설정&lt;/div&gt;&lt;div&gt;DEL,-p,-f,,name,KYUMOK&amp;nbsp; &amp;nbsp;-&amp;nbsp; &amp;nbsp;이름(FirstName)이KYUMOK인record를삭제&lt;/div&gt;&lt;div&gt;MOD,,-l,,name,KIM,phoneNum,010-9777-5455&amp;nbsp; &amp;nbsp;-&amp;nbsp; &amp;nbsp;성(LastName)이KIM인전화번호를변경&lt;/div&gt;&lt;div&gt;&lt;br&gt;&lt;/div&gt;&lt;div&gt;전화 번호의 중간 자리 및 뒷 자리로 조건 설정&lt;/div&gt;&lt;div&gt;DEL,-p,-m,,phoneNum,9777&amp;nbsp; &amp;nbsp; 전화번호의중간자리가9777인record를삭제&lt;/div&gt;&lt;div&gt;MOD,,-l,,phoneNum,6055,certi,EX&amp;nbsp; &amp;nbsp; &amp;nbsp;전화번호의뒷자리가6055인record의 certi를변경&lt;/div&gt;&lt;div&gt;&lt;br&gt;&lt;/div&gt;&lt;div&gt;생년월일의 연도, 월, 일로 조건 설정&lt;/div&gt;&lt;div&gt;MOD,-p,-y,,birthday,1990,name,KYUMOKLEE&amp;nbsp; &amp;nbsp; 생년월일의연도가1990인record의성명을변경&lt;/div&gt;&lt;div&gt;MOD,-p,-m,,birthday,09,cl,CL2&amp;nbsp; &amp;nbsp; 생년월일의월이9인record의경력개발단계를변경&lt;/div&gt;&lt;div&gt;MOD,,-d,,birthday,06,certi,EX&amp;nbsp; &amp;nbsp; 생년월일의일이6인record의certi를변경&lt;/div&gt;&lt;div&gt;&lt;br&gt;&lt;/div&gt;&lt;div&gt;부등호를 활용한 검색&lt;/div&gt;&lt;div&gt;SCH,-p,-f,-ge,name,KYUMOK&amp;nbsp; &amp;nbsp; 성명의이름(firstname)이KYUMOK보다사전순으로뒤이거나같은record검색&lt;/div&gt;&lt;div&gt;SCH,-p,,-s,cl,CL3&amp;nbsp; &amp;nbsp; 경력개발단계가CL3보다작은record를검색&lt;/div&gt;&lt;div&gt;SCH,-p,-m,-se,phoneNum,9777&amp;nbsp; &amp;nbsp;전화번호의중간자리가9777보다작거나같은record를검색&lt;/div&gt;&lt;div&gt;SCH,-p,-y,-ge,birthday,1990&amp;nbsp; &amp;nbsp;생년월일중연도가1990보다크거나같은record를검색&lt;/div&gt;&lt;div&gt;SCH,-p,,-ge,certi,PRO&amp;nbsp; &amp;nbsp; certi가PRO보다높거나같은record를검색&lt;/div&gt;&lt;div&gt;&lt;br&gt;&lt;/div&gt;&lt;div&gt;and or 연산&lt;/div&gt;&lt;div&gt;DEL,-p,-l,,name,KIM,-a,,,cl,CL4&amp;nbsp; &amp;nbsp; 성명의성이KIM이고,경력개발단계가CL4인record를삭제&lt;/div&gt;&lt;div&gt;DEL,,-m,,phoneNum,9777,-o,-y,,birthday,1990&amp;nbsp; &amp;nbsp; 전화번호의가운데가9777이거나,생년월일의연도가1990인record를삭제&lt;/div&gt;&lt;div&gt;MOD,-p,,,cl,CL2,-a,-m,,birthday,01,name,KYUMOKLEE&amp;nbsp; &amp;nbsp; 경력개발단계가CL2,생년월일의월이01인record의성명을변경&lt;/div&gt;&lt;div&gt;MOD,,-d,,birthday,06,-o,,,certi,PRO,birthday,19900906&amp;nbsp; &amp;nbsp;생년월일의 일이06이거나,certi가PRO인record의생년월일을변경&lt;/div&gt;&lt;div&gt;SCH,-p,-l,,name,KIM,-a,,,cl,CL4&amp;nbsp; &amp;nbsp;성명의성이KIM이고,경력개발단계가CL4인record를검색&lt;/div&gt;&lt;div&gt;SCH,,-m,,phoneNum,9777,-o,-y,,birthday,1990&amp;nbsp; &amp;nbsp; 전화번호의가운데가9777이거나,생년월일의연도가1990인record를검색&lt;/div&gt;" style="text;html=1;strokeColor=none;fillColor=none;align=left;verticalAlign=middle;whiteSpace=wrap;rounded=0;" parent="1" vertex="1"><mxGeometry x="-40" y="560" width="660" height="530" as="geometry"/></mxCell><mxCell id="Wswot1VfFrp1AyBeZjJa-166" value="Use" style="endArrow=open;endSize=12;dashed=1;html=1;exitX=0.461;exitY=1.077;exitDx=0;exitDy=0;exitPerimeter=0;entryX=0.625;entryY=-0.009;entryDx=0;entryDy=0;entryPerimeter=0;" parent="1" source="127" target="66" edge="1"><mxGeometry width="160" relative="1" as="geometry"><mxPoint x="510" y="560" as="sourcePoint"/><mxPoint x="670" y="560" as="targetPoint"/></mxGeometry></mxCell><mxCell id="167" value="Use" style="endArrow=open;endSize=12;dashed=1;html=1;exitX=0.613;exitY=0.962;exitDx=0;exitDy=0;exitPerimeter=0;entryX=0;entryY=0;entryDx=0;entryDy=0;" parent="1" source="89" target="66" edge="1"><mxGeometry width="160" relative="1" as="geometry"><mxPoint x="510" y="560" as="sourcePoint"/><mxPoint x="670" y="560" as="targetPoint"/></mxGeometry></mxCell></root></mxGraphModel></diagram><diagram id="SMnXmVClYNjfcMOx4wi9" name="Page-2"><mxGraphModel dx="1006" dy="630" grid="1" gridSize="10" guides="1" tooltips="1" connect="1" arrows="1" fold="1" page="1" pageScale="1" pageWidth="850" pageHeight="1100" math="0" shadow="0"><root><mxCell id="8PoX-GyOiatZn4bV9jsy-0"/><mxCell id="8PoX-GyOiatZn4bV9jsy-1" parent="8PoX-GyOiatZn4bV9jsy-0"/><mxCell id="8PoX-GyOiatZn4bV9jsy-2" value=":EmployeeManagement" style="shape=umlLifeline;perimeter=lifelinePerimeter;whiteSpace=wrap;html=1;container=1;collapsible=0;recursiveResize=0;outlineConnect=0;" parent="8PoX-GyOiatZn4bV9jsy-1" vertex="1"><mxGeometry x="40" y="230" width="100" height="450" as="geometry"/></mxCell><mxCell id="8PoX-GyOiatZn4bV9jsy-3" value="CommandReader" style="shape=umlLifeline;perimeter=lifelinePerimeter;whiteSpace=wrap;html=1;container=1;collapsible=0;recursiveResize=0;outlineConnect=0;" parent="8PoX-GyOiatZn4bV9jsy-1" vertex="1"><mxGeometry x="160" y="230" width="100" height="450" as="geometry"/></mxCell><mxCell id="8PoX-GyOiatZn4bV9jsy-4" value="CommandExecutor" style="shape=umlLifeline;perimeter=lifelinePerimeter;whiteSpace=wrap;html=1;container=1;collapsible=0;recursiveResize=0;outlineConnect=0;" parent="8PoX-GyOiatZn4bV9jsy-1" vertex="1"><mxGeometry x="580" y="230" width="100" height="450" as="geometry"/></mxCell><mxCell id="8PoX-GyOiatZn4bV9jsy-5" value="CommandParser" style="shape=umlLifeline;perimeter=lifelinePerimeter;whiteSpace=wrap;html=1;container=1;collapsible=0;recursiveResize=0;outlineConnect=0;" parent="8PoX-GyOiatZn4bV9jsy-1" vertex="1"><mxGeometry x="270" y="230" width="100" height="450" as="geometry"/></mxCell><mxCell id="8PoX-GyOiatZn4bV9jsy-6" value="CommandFactory" style="shape=umlLifeline;perimeter=lifelinePerimeter;whiteSpace=wrap;html=1;container=1;collapsible=0;recursiveResize=0;outlineConnect=0;" parent="8PoX-GyOiatZn4bV9jsy-1" vertex="1"><mxGeometry x="470" y="230" width="100" height="450" as="geometry"/></mxCell><mxCell id="8PoX-GyOiatZn4bV9jsy-12" value="readFile" style="html=1;verticalAlign=bottom;startArrow=oval;endArrow=block;startSize=8;" parent="8PoX-GyOiatZn4bV9jsy-1" target="8PoX-GyOiatZn4bV9jsy-3" edge="1"><mxGeometry relative="1" as="geometry"><mxPoint x="90" y="300" as="sourcePoint"/><mxPoint x="195" y="300" as="targetPoint"/></mxGeometry></mxCell><mxCell id="8PoX-GyOiatZn4bV9jsy-13" value="parse" style="html=1;verticalAlign=bottom;startArrow=oval;startFill=1;endArrow=block;startSize=8;" parent="8PoX-GyOiatZn4bV9jsy-1" source="8PoX-GyOiatZn4bV9jsy-2" target="8PoX-GyOiatZn4bV9jsy-5" edge="1"><mxGeometry width="60" relative="1" as="geometry"><mxPoint x="180" y="380" as="sourcePoint"/><mxPoint x="240" y="380" as="targetPoint"/><Array as="points"><mxPoint x="250" y="330"/></Array></mxGeometry></mxCell><mxCell id="8PoX-GyOiatZn4bV9jsy-16" value="TokenGroup" style="shape=umlLifeline;perimeter=lifelinePerimeter;whiteSpace=wrap;html=1;container=1;collapsible=0;recursiveResize=0;outlineConnect=0;" parent="8PoX-GyOiatZn4bV9jsy-1" vertex="1"><mxGeometry x="375" y="330" width="100" height="350" as="geometry"/></mxCell><mxCell id="8PoX-GyOiatZn4bV9jsy-17" value="create" style="html=1;verticalAlign=bottom;startArrow=oval;startFill=1;endArrow=block;startSize=8;" parent="8PoX-GyOiatZn4bV9jsy-1" edge="1"><mxGeometry width="60" relative="1" as="geometry"><mxPoint x="320" y="350" as="sourcePoint"/><mxPoint x="380" y="350" as="targetPoint"/></mxGeometry></mxCell><mxCell id="8PoX-GyOiatZn4bV9jsy-18" value="get type&lt;br&gt;options&lt;br&gt;params" style="html=1;verticalAlign=bottom;startArrow=oval;startFill=1;endArrow=block;startSize=8;" parent="8PoX-GyOiatZn4bV9jsy-1" source="8PoX-GyOiatZn4bV9jsy-2" target="8PoX-GyOiatZn4bV9jsy-16" edge="1"><mxGeometry width="60" relative="1" as="geometry"><mxPoint x="180" y="380" as="sourcePoint"/><mxPoint x="240" y="380" as="targetPoint"/><Array as="points"><mxPoint x="310" y="400"/></Array></mxGeometry></mxCell><mxCell id="8PoX-GyOiatZn4bV9jsy-19" value="buildCommand" style="html=1;verticalAlign=bottom;startArrow=oval;startFill=1;endArrow=block;startSize=8;" parent="8PoX-GyOiatZn4bV9jsy-1" source="8PoX-GyOiatZn4bV9jsy-2" target="8PoX-GyOiatZn4bV9jsy-6" edge="1"><mxGeometry width="60" relative="1" as="geometry"><mxPoint x="210" y="439.5" as="sourcePoint"/><mxPoint x="270" y="439.5" as="targetPoint"/><Array as="points"><mxPoint x="170" y="430"/></Array></mxGeometry></mxCell><mxCell id="8PoX-GyOiatZn4bV9jsy-20" value="execute" style="html=1;verticalAlign=bottom;startArrow=oval;startFill=1;endArrow=block;startSize=8;" parent="8PoX-GyOiatZn4bV9jsy-1" source="8PoX-GyOiatZn4bV9jsy-2" target="8PoX-GyOiatZn4bV9jsy-4" edge="1"><mxGeometry width="60" relative="1" as="geometry"><mxPoint x="90" y="460" as="sourcePoint"/><mxPoint x="150" y="460" as="targetPoint"/><Array as="points"><mxPoint x="410" y="490"/></Array></mxGeometry></mxCell><mxCell id="zYLM_eq1NGZmET_BpjL7-0" value="Add" style="shape=umlLifeline;perimeter=lifelinePerimeter;whiteSpace=wrap;html=1;container=1;collapsible=0;recursiveResize=0;outlineConnect=0;" parent="8PoX-GyOiatZn4bV9jsy-1" vertex="1"><mxGeometry x="670" y="410" width="50" height="280" as="geometry"/></mxCell><mxCell id="zYLM_eq1NGZmET_BpjL7-1" value="Search" style="shape=umlLifeline;perimeter=lifelinePerimeter;whiteSpace=wrap;html=1;container=1;collapsible=0;recursiveResize=0;outlineConnect=0;" parent="8PoX-GyOiatZn4bV9jsy-1" vertex="1"><mxGeometry x="720" y="410" width="50" height="280" as="geometry"/></mxCell><mxCell id="MadBYAr41TG871RBULSe-0" value="Delete" style="shape=umlLifeline;perimeter=lifelinePerimeter;whiteSpace=wrap;html=1;container=1;collapsible=0;recursiveResize=0;outlineConnect=0;" parent="8PoX-GyOiatZn4bV9jsy-1" vertex="1"><mxGeometry x="770" y="410" width="50" height="280" as="geometry"/></mxCell><mxCell id="MadBYAr41TG871RBULSe-1" value="Count" style="shape=umlLifeline;perimeter=lifelinePerimeter;whiteSpace=wrap;html=1;container=1;collapsible=0;recursiveResize=0;outlineConnect=0;" parent="8PoX-GyOiatZn4bV9jsy-1" vertex="1"><mxGeometry x="820" y="410" width="50" height="280" as="geometry"/></mxCell><mxCell id="MadBYAr41TG871RBULSe-2" value="create" style="html=1;verticalAlign=bottom;startArrow=oval;startFill=1;endArrow=block;startSize=8;" parent="8PoX-GyOiatZn4bV9jsy-1" source="8PoX-GyOiatZn4bV9jsy-6" target="zYLM_eq1NGZmET_BpjL7-0" edge="1"><mxGeometry width="60" relative="1" as="geometry"><mxPoint x="520" y="450" as="sourcePoint"/><mxPoint x="580" y="450" as="targetPoint"/><Array as="points"><mxPoint x="660" y="460"/></Array></mxGeometry></mxCell><mxCell id="MadBYAr41TG871RBULSe-4" value="execute" style="html=1;verticalAlign=bottom;startArrow=oval;startFill=1;endArrow=block;startSize=8;" parent="8PoX-GyOiatZn4bV9jsy-1" source="8PoX-GyOiatZn4bV9jsy-4" edge="1"><mxGeometry width="60" relative="1" as="geometry"><mxPoint x="920" y="510" as="sourcePoint"/><mxPoint x="700" y="510" as="targetPoint"/></mxGeometry></mxCell><mxCell id="4wMBiPkqrY4SwzF32R2y-0" value="EmployeeStoreImpl" style="shape=umlLifeline;perimeter=lifelinePerimeter;whiteSpace=wrap;html=1;container=1;collapsible=0;recursiveResize=0;outlineConnect=0;" parent="8PoX-GyOiatZn4bV9jsy-1" vertex="1"><mxGeometry x="890" y="225" width="100" height="455" as="geometry"/></mxCell><mxCell id="4wMBiPkqrY4SwzF32R2y-1" value="add" style="html=1;verticalAlign=bottom;startArrow=oval;startFill=1;endArrow=block;startSize=8;" parent="8PoX-GyOiatZn4bV9jsy-1" source="zYLM_eq1NGZmET_BpjL7-0" target="4wMBiPkqrY4SwzF32R2y-0" edge="1"><mxGeometry width="60" relative="1" as="geometry"><mxPoint x="700" y="560" as="sourcePoint"/><mxPoint x="460" y="560" as="targetPoint"/><Array as="points"><mxPoint x="720" y="530"/></Array></mxGeometry></mxCell><mxCell id="4wMBiPkqrY4SwzF32R2y-2" value="search" style="html=1;verticalAlign=bottom;startArrow=oval;startFill=1;endArrow=block;startSize=8;" parent="8PoX-GyOiatZn4bV9jsy-1" edge="1"><mxGeometry width="60" relative="1" as="geometry"><mxPoint x="746.5" y="549" as="sourcePoint"/><mxPoint x="941.5" y="549" as="targetPoint"/><Array as="points"><mxPoint x="773" y="549"/><mxPoint x="802" y="549"/></Array></mxGeometry></mxCell><mxCell id="4wMBiPkqrY4SwzF32R2y-4" value="delete" style="html=1;verticalAlign=bottom;startArrow=oval;startFill=1;endArrow=block;startSize=8;" parent="8PoX-GyOiatZn4bV9jsy-1" edge="1"><mxGeometry width="60" relative="1" as="geometry"><mxPoint x="794.5" y="570" as="sourcePoint"/><mxPoint x="939.5" y="570" as="targetPoint"/></mxGeometry></mxCell><mxCell id="4wMBiPkqrY4SwzF32R2y-5" value="&lt;pre style=&quot;background-color: #2b2b2b ; color: #a9b7c6 ; font-family: &amp;#34;jetbrains mono&amp;#34; , monospace ; font-size: 9.8pt&quot;&gt;ResultStringFormatter&lt;/pre&gt;" style="shape=umlLifeline;perimeter=lifelinePerimeter;whiteSpace=wrap;html=1;container=1;collapsible=0;recursiveResize=0;outlineConnect=0;" parent="8PoX-GyOiatZn4bV9jsy-1" vertex="1"><mxGeometry x="1000" y="225" width="150" height="455" as="geometry"/></mxCell></root></mxGraphModel></diagram></mxfile>